<?xml version="1.0" encoding="UTF-8" standalone="no"?>
<!DOCTYPE svg PUBLIC "-//W3C//DTD SVG 1.1//EN" "http://www.w3.org/Graphics/SVG/1.1/DTD/svg11.dtd">
<svg width="100%" height="100%" viewBox="0 0 2953 862" version="1.1" xmlns="http://www.w3.org/2000/svg" xmlns:xlink="http://www.w3.org/1999/xlink" xml:space="preserve" xmlns:serif="http://www.serif.com/" style="fill-rule:evenodd;clip-rule:evenodd;stroke-linejoin:round;stroke-miterlimit:2;">
    <g transform="matrix(1,0,0,1,-24818,0)">
        <g id="Artboard1" transform="matrix(1,0,0,0.405456,-0.189765,0)">
            <rect x="24818.2" y="0" width="2952.8" height="2126" style="fill:none;"/>
            <g transform="matrix(3.63185,0,0,12.7266,11005.2,-6956.48)">
                <g transform="matrix(165.747,0,0,116.66,4183,672.056)">
                    <path d="M0.364,-0.575L0.214,-0.575L0.214,-0.359L0.36,-0.359C0.391,-0.359 0.415,-0.37 0.432,-0.392C0.448,-0.413 0.457,-0.438 0.457,-0.466C0.457,-0.494 0.449,-0.519 0.433,-0.542C0.417,-0.564 0.394,-0.575 0.364,-0.575ZM0.086,-0L0.086,-0.689L0.366,-0.689C0.438,-0.689 0.493,-0.667 0.53,-0.624C0.567,-0.58 0.585,-0.527 0.585,-0.466C0.585,-0.405 0.567,-0.353 0.53,-0.31C0.493,-0.267 0.438,-0.245 0.366,-0.245L0.214,-0.245L0.214,-0L0.086,-0Z" style="fill:rgb(64,64,64);fill-rule:nonzero;"/>
                </g>
                <g transform="matrix(165.747,0,0,116.66,4281.62,672.056)">
                    <path d="M0.519,-0.235C0.519,-0.222 0.518,-0.208 0.517,-0.193L0.161,-0.193C0.165,-0.162 0.179,-0.138 0.203,-0.12C0.226,-0.102 0.255,-0.093 0.29,-0.093C0.315,-0.093 0.338,-0.098 0.359,-0.109C0.38,-0.119 0.396,-0.134 0.407,-0.153C0.422,-0.145 0.453,-0.128 0.5,-0.103C0.48,-0.065 0.45,-0.037 0.411,-0.018C0.372,0.001 0.329,0.01 0.282,0.01C0.214,0.01 0.157,-0.013 0.11,-0.059C0.063,-0.104 0.04,-0.163 0.04,-0.235C0.04,-0.307 0.063,-0.365 0.11,-0.41C0.157,-0.455 0.214,-0.477 0.282,-0.477C0.35,-0.477 0.407,-0.455 0.452,-0.41C0.497,-0.365 0.519,-0.307 0.519,-0.235ZM0.16,-0.276L0.4,-0.276C0.395,-0.307 0.382,-0.332 0.361,-0.349C0.34,-0.366 0.314,-0.375 0.283,-0.375C0.25,-0.375 0.223,-0.366 0.201,-0.349C0.178,-0.331 0.165,-0.307 0.16,-0.276Z" style="fill:rgb(64,64,64);fill-rule:nonzero;"/>
                </g>
                <g transform="matrix(165.747,0,0,116.66,4373.28,672.056)">
                    <path d="M0.519,-0.235C0.519,-0.222 0.518,-0.208 0.517,-0.193L0.161,-0.193C0.165,-0.162 0.179,-0.138 0.203,-0.12C0.226,-0.102 0.255,-0.093 0.29,-0.093C0.315,-0.093 0.338,-0.098 0.359,-0.109C0.38,-0.119 0.396,-0.134 0.407,-0.153C0.422,-0.145 0.453,-0.128 0.5,-0.103C0.48,-0.065 0.45,-0.037 0.411,-0.018C0.372,0.001 0.329,0.01 0.282,0.01C0.214,0.01 0.157,-0.013 0.11,-0.059C0.063,-0.104 0.04,-0.163 0.04,-0.235C0.04,-0.307 0.063,-0.365 0.11,-0.41C0.157,-0.455 0.214,-0.477 0.282,-0.477C0.35,-0.477 0.407,-0.455 0.452,-0.41C0.497,-0.365 0.519,-0.307 0.519,-0.235ZM0.16,-0.276L0.4,-0.276C0.395,-0.307 0.382,-0.332 0.361,-0.349C0.34,-0.366 0.314,-0.375 0.283,-0.375C0.25,-0.375 0.223,-0.366 0.201,-0.349C0.178,-0.331 0.165,-0.307 0.16,-0.276Z" style="fill:rgb(64,64,64);fill-rule:nonzero;"/>
                </g>
                <g transform="matrix(165.747,0,0,116.66,4464.94,672.056)">
                    <path d="M0.191,-0.165L0.191,-0L0.069,-0L0.069,-0.467L0.191,-0.467L0.191,-0.357C0.202,-0.397 0.22,-0.427 0.244,-0.447C0.268,-0.467 0.294,-0.477 0.323,-0.477C0.353,-0.477 0.379,-0.471 0.4,-0.46L0.379,-0.35C0.36,-0.359 0.336,-0.363 0.308,-0.363C0.23,-0.363 0.191,-0.297 0.191,-0.165Z" style="fill:rgb(64,64,64);fill-rule:nonzero;"/>
                </g>
                <g transform="matrix(165.747,0,0,116.66,4533.06,672.056)">
                    <path d="M0.191,-0.165L0.191,-0L0.069,-0L0.069,-0.467L0.191,-0.467L0.191,-0.357C0.202,-0.397 0.22,-0.427 0.244,-0.447C0.268,-0.467 0.294,-0.477 0.323,-0.477C0.353,-0.477 0.379,-0.471 0.4,-0.46L0.379,-0.35C0.36,-0.359 0.336,-0.363 0.308,-0.363C0.23,-0.363 0.191,-0.297 0.191,-0.165Z" style="fill:rgb(64,64,64);fill-rule:nonzero;"/>
                </g>
            </g>
            <g transform="matrix(1115.13,0,0,-2750.31,24891.7,1386.45)">
                <path d="M0.751,0.445C0.632,0.445 0.553,0.323 0.598,0.215C0.576,0.198 0.558,0.178 0.543,0.156C0.492,0.079 0.447,-0.023 0.398,-0.091C0.295,-0.232 0.065,-0.161 0.065,0.018C0.065,0.099 0.117,0.167 0.189,0.192C0.19,0.193 0.191,0.194 0.191,0.195C0.192,0.196 0.191,0.197 0.19,0.198C0.113,0.253 0.151,0.38 0.249,0.38C0.348,0.38 0.386,0.253 0.308,0.198C0.307,0.197 0.307,0.196 0.307,0.195C0.307,0.194 0.308,0.193 0.309,0.192C0.369,0.172 0.414,0.122 0.429,0.059C0.429,0.057 0.431,0.055 0.434,0.054C0.437,0.054 0.44,0.055 0.441,0.058C0.452,0.076 0.469,0.105 0.475,0.115C0.476,0.118 0.477,0.121 0.475,0.123C0.459,0.159 0.434,0.191 0.402,0.215C0.448,0.323 0.368,0.445 0.249,0.445C0.158,0.445 0.084,0.371 0.084,0.279C0.084,0.257 0.088,0.235 0.096,0.215C0.037,0.169 0,0.097 0,0.018C0,-0.232 0.342,-0.338 0.474,-0.089C0.514,-0.022 0.553,0.049 0.594,0.115C0.616,0.151 0.65,0.178 0.691,0.192C0.692,0.193 0.693,0.194 0.693,0.195C0.693,0.196 0.693,0.197 0.692,0.198C0.614,0.253 0.652,0.38 0.751,0.38C0.849,0.38 0.887,0.253 0.81,0.198C0.809,0.197 0.808,0.196 0.809,0.195C0.809,0.194 0.809,0.193 0.811,0.192C0.883,0.167 0.935,0.099 0.935,0.018C0.935,-0.083 0.852,-0.166 0.751,-0.166C0.662,-0.166 0.588,-0.103 0.571,-0.02C0.57,-0.017 0.568,-0.015 0.565,-0.015C0.563,-0.014 0.56,-0.016 0.558,-0.018C0.547,-0.037 0.529,-0.068 0.523,-0.077C0.522,-0.079 0.522,-0.082 0.523,-0.084C0.562,-0.17 0.649,-0.231 0.751,-0.231C0.888,-0.231 1,-0.119 1,0.018C1,0.097 0.963,0.169 0.904,0.215C0.912,0.235 0.917,0.257 0.917,0.279C0.917,0.371 0.842,0.445 0.751,0.445Z" style="fill:url(#_Linear1);fill-rule:nonzero;"/>
            </g>
        </g>
    </g>
    <defs>
        <linearGradient id="_Linear1" x1="0" y1="0" x2="1" y2="0" gradientUnits="userSpaceOnUse" gradientTransform="matrix(1,0,0,-1,0,0.106902)"><stop offset="0" style="stop-color:rgb(255,153,0);stop-opacity:1"/><stop offset="1" style="stop-color:rgb(241,0,145);stop-opacity:1"/></linearGradient>
    </defs>
</svg>
